HIERARCHY
ROOT Hips
{
	OFFSET 0.00000 0.00000 0.00000
	CHANNELS 6 Xposition Yposition Zposition Zrotation Yrotation Xrotation 
	JOINT LHipJoint
	{
		OFFSET 0 0 0
		CHANNELS 3 Zrotation Yrotation Xrotation
		JOINT LeftUpLeg
		{
			OFFSET 1.37590 -1.78394 0.89329
			CHANNELS 3 Zrotation Yrotation Xrotation
			JOINT LeftLeg
			{
				OFFSET 2.47928 -6.81178 0.00000
				CHANNELS 3 Zrotation Yrotation Xrotation
				JOINT LeftFoot
				{
					OFFSET 2.63345 -7.23535 0.00000
					CHANNELS 3 Zrotation Yrotation Xrotation
					JOINT LeftToeBase
					{
						OFFSET 0.23938 -0.65768 2.27012
						CHANNELS 3 Zrotation Yrotation Xrotation
						End Site
						{
							OFFSET 0.00000 -0.00000 1.18363
						}
					}
				}
			}
		}
	}
	JOINT RHipJoint
	{
		OFFSET 0 0 0
		CHANNELS 3 Zrotation Yrotation Xrotation
		JOINT RightUpLeg
		{
			OFFSET -1.33617 -1.78394 0.89329
			CHANNELS 3 Zrotation Yrotation Xrotation
			JOINT RightLeg
			{
				OFFSET -2.56922 -7.05888 0.00000
				CHANNELS 3 Zrotation Yrotation Xrotation
				JOINT RightFoot
				{
					OFFSET -2.56568 -7.04915 0.00000
					CHANNELS 3 Zrotation Yrotation Xrotation
					JOINT RightToeBase
					{
						OFFSET -0.27533 -0.75646 2.18105
						CHANNELS 3 Zrotation Yrotation Xrotation
						End Site
						{
							OFFSET -0.00000 -0.00000 1.15233
						}
					}
				}
			}
		}
	}
	JOINT LowerBack
	{
		OFFSET 0 0 0
		CHANNELS 3 Zrotation Yrotation Xrotation
		JOINT Spine
		{
			OFFSET 0.06190 2.15152 -0.00935
			CHANNELS 3 Zrotation Yrotation Xrotation
			JOINT Spine1
			{
				OFFSET 0.06334 2.15332 0.00872
				CHANNELS 3 Zrotation Yrotation Xrotation
				JOINT Neck
				{
					OFFSET 0 0 0
					CHANNELS 3 Zrotation Yrotation Xrotation
					JOINT Neck1
					{
						OFFSET -0.04202 1.66908 0.23524
						CHANNELS 3 Zrotation Yrotation Xrotation
						JOINT Head
						{
							OFFSET 0.07510 1.69357 -0.24440
							CHANNELS 3 Zrotation Yrotation Xrotation
							End Site
							{
								OFFSET 0.02556 1.71719 -0.11000
							}
						}
					}
				}
				JOINT LeftShoulder
				{
					OFFSET 0 0 0
					CHANNELS 3 Zrotation Yrotation Xrotation
					JOINT LeftArm
					{
						OFFSET 3.67168 1.26306 -0.41342
						CHANNELS 3 Zrotation Yrotation Xrotation
						JOINT LeftForeArm
						{
							OFFSET 4.68510 -0.00000 -0.00000
							CHANNELS 3 Zrotation Yrotation Xrotation
							JOINT LeftHand
							{
								OFFSET 3.39626 -0.00000 -0.00000
								CHANNELS 3 Zrotation Yrotation Xrotation
								JOINT LeftFingerBase
								{
									OFFSET 0 0 0
									CHANNELS 3 Zrotation Yrotation Xrotation
									JOINT LeftHandIndex1
									{
										OFFSET 0.48608 -0.00000 -0.00000
										CHANNELS 3 Zrotation Yrotation Xrotation
										End Site
										{
											OFFSET 0.39189 -0.00000 -0.00000
										}
									}
								}
								JOINT LThumb
								{
									OFFSET 0 0 0
									CHANNELS 3 Zrotation Yrotation Xrotation
									End Site
									{
										OFFSET 0.39787 -0.00000 0.39787
									}
								}
							}
						}
					}
				}
				JOINT RightShoulder
				{
					OFFSET 0 0 0
					CHANNELS 3 Zrotation Yrotation Xrotation
					JOINT RightArm
					{
						OFFSET -3.04136 1.42992 -0.76390
						CHANNELS 3 Zrotation Yrotation Xrotation
						JOINT RightForeArm
						{
							OFFSET -5.55576 -0.00000 -0.00000
							CHANNELS 3 Zrotation Yrotation Xrotation
							JOINT RightHand
							{
								OFFSET -3.32774 -0.00000 -0.00000
								CHANNELS 3 Zrotation Yrotation Xrotation
								JOINT RightFingerBase
								{
									OFFSET 0 0 0
									CHANNELS 3 Zrotation Yrotation Xrotation
									JOINT RightHandIndex1
									{
										OFFSET -0.50763 -0.00000 -0.00000
										CHANNELS 3 Zrotation Yrotation Xrotation
										End Site
										{
											OFFSET -0.40926 -0.00000 -0.00000
										}
									}
								}
								JOINT RThumb
								{
									OFFSET 0 0 0
									CHANNELS 3 Zrotation Yrotation Xrotation
									End Site
									{
										OFFSET -0.41551 -0.00000 0.41551
									}
								}
							}
						}
					}
				}
			}
		}
	}
}
MOTION
Frames: 14
Frame Time: 0.0606061
0.00 0.00 0.00 -156.7690 -75.8004 165.4460 0.0000 0.0000 0.0000 -10.0515 -7.0108 -28.8234 2.2871 9.4401 27.1819 0.0371 5.8860 -9.3702 0.7531 -5.5426 -15.4628 0.0000 0.0000 0.0000 26.5101 7.6757 -8.1403 -1.1670 -6.8576 19.2941 -0.0533 -8.2830 -12.8084 -0.0502 -1.4460 3.9770 6.9740 -0.1450 0.5784 8.4913 -0.2747 -2.6135 4.9648 -0.3825 -3.0244 -4.5481 -2.3709 -19.6699 4.1984 -2.5941 8.6082 1.8007 -1.0869 5.8949 -0.0000 0.0000 0.0000 138.5870 -82.8416 -174.0186 21.8290 -32.7832 -6.4930 -0.0000 -0.0000 29.6308 24.4586 12.7072 5.7136 -7.1250 0.0000 -0.0000 -2.5989 43.8778 0.0720 -0.0000 0.0000 0.0000 44.7176 81.8999 1.2265 -32.7224 43.1156 -13.2320 0.0000 0.0000 13.0193 -26.2048 -14.8430 7.1859 7.1250 -0.0000 -0.0000 1.2856 -46.4313 -0.0454
0.00 0.00 0.00 -157.3240 -73.9097 166.0280 0.0000 0.0000 0.0000 -9.1983 -8.0669 -28.8873 1.3563 7.3719 20.8220 -0.0504 7.3433 -9.2413 0.6164 -5.0247 -13.9790 0.0000 0.0000 0.0000 26.4538 6.6038 -7.3435 -1.6365 -8.0639 22.9085 -0.2309 -6.5555 -13.7715 -0.0031 0.3586 -0.9853 6.7883 -0.3224 0.3723 8.6647 -0.5795 -2.4192 5.2540 -0.5316 -2.6890 -4.5863 -2.2111 -19.5147 4.5355 -2.4399 9.4385 1.9348 -0.9824 6.1357 0.0000 -0.0000 0.0000 170.7887 -81.7783 157.4114 21.8868 -32.8489 -6.5243 -0.0000 -0.0000 28.8662 25.5850 11.7692 5.5778 -7.1250 0.0000 -0.0000 -1.4520 42.9824 0.0723 0.0000 -0.0000 0.0000 61.8571 76.7376 14.8066 -35.2433 44.9851 -14.9851 0.0000 0.0000 11.3270 -26.5853 -15.0757 7.4161 7.1250 -0.0000 -0.0000 0.9592 -46.7405 -0.0412
0.00 0.00 0.00 -158.5730 -72.4997 166.8140 0.0000 0.0000 0.0000 -9.1975 -8.4788 -28.3528 1.0172 6.4166 17.9979 -0.1262 8.0973 -8.3941 0.3577 -3.8421 -10.6329 0.0000 0.0000 0.0000 25.5787 5.7103 -7.7861 -2.5882 -9.9965 28.9654 -0.2535 -5.5288 -13.1440 -0.0843 1.8727 -5.1540 6.2849 -0.6839 0.2510 8.4837 -1.1025 -2.1057 5.3407 -0.7704 -2.2641 -4.4939 -1.9297 -19.3453 4.7727 -2.1535 10.4459 2.0328 -0.8169 6.4219 -0.0000 -0.0000 0.0000 -155.3773 -78.6090 126.7763 23.4213 -34.5463 -7.3758 -0.0000 -0.0000 30.2697 28.6078 12.1044 6.5243 -7.1250 0.0000 -0.0000 1.2756 43.7036 -0.0408 -0.0000 -0.0000 0.0000 70.0036 68.3464 19.6965 -40.4175 48.3153 -18.7504 0.0000 0.0000 7.8686 -24.9014 -16.3031 7.4246 7.1250 -0.0000 -0.0000 2.7760 -47.8326 -0.1942
0.00 0.00 0.00 -163.2470 -71.1210 169.7920 0.0000 0.0000 0.0000 -12.0195 -7.2237 -26.4911 1.2546 7.1011 20.0151 -0.0847 6.5910 -6.7808 0.0243 -1.0058 -2.7648 0.0000 0.0000 0.0000 22.3656 5.4812 -11.8084 -5.6331 -14.0631 43.4907 0.0833 -7.1281 -7.8883 -0.1312 2.3348 -6.4319 4.8462 -1.5116 0.5364 7.4858 -2.1785 -1.3692 5.0885 -1.2432 -1.5951 -3.9341 -1.0593 -19.0167 4.5671 -1.1548 12.1048 1.9971 -0.3272 6.8522 0.0000 -0.0000 0.0000 -120.9126 -67.6719 97.0763 28.7684 -39.8141 -10.6121 -0.0000 -0.0000 37.1539 36.0956 14.3822 10.2649 -7.1250 0.0000 -0.0000 8.3083 47.4125 0.4979 0.0000 -0.0000 0.0000 76.2199 49.6041 21.8524 -54.2404 54.5689 -29.5961 0.0000 -0.0000 -3.8665 -14.9220 -19.7839 5.1541 7.1250 -0.0000 -0.0000 13.3188 -49.9246 -1.6427
0.00 0.00 0.00 -170.9320 -70.8409 175.4670 0.0000 0.0000 0.0000 -17.3936 -5.1860 -21.8635 1.7701 8.3698 23.8432 0.0749 3.1910 -7.3360 0.0514 1.4626 4.0226 0.0000 0.0000 0.0000 17.7937 7.0643 -20.4352 -9.8205 -17.3077 58.8866 0.3720 -11.0735 -1.1777 -0.0006 0.1547 -0.4250 2.8100 -2.3806 1.2796 5.9943 -3.2612 -0.5320 4.6831 -1.7171 -1.0677 -3.0139 0.2456 -18.4353 3.5913 0.4868 13.2998 1.7194 0.4115 7.0739 -0.0000 -0.0000 0.0000 -103.8172 -51.7176 86.6707 35.9202 -45.4582 -15.4656 -0.0000 -0.0000 46.3604 43.8956 17.7950 16.3861 -7.1250 0.0000 -0.0000 16.8692 53.1933 3.4782 -0.0000 -0.0000 0.0000 79.0407 27.7964 25.1113 -72.6543 58.8321 -45.0371 0.0000 -0.0000 -22.8084 -1.5518 -32.6528 0.8374 7.1250 -0.0000 -0.0000 34.6051 -59.1273 -12.8984
0.00 0.00 0.00 -180.3970 -76.2780 185.6900 0.0000 0.0000 0.0000 -24.5068 -4.1074 -8.7327 1.2310 7.0364 19.8232 0.4650 -4.0226 -12.1358 0.1292 2.3169 6.3822 0.0000 0.0000 0.0000 13.4572 8.4342 -35.7646 -6.4043 -14.8090 46.5834 0.4871 -12.3650 -6.3329 -0.0933 -1.9697 5.4220 0.3041 -3.0602 1.2660 4.3458 -4.1566 0.4443 4.3433 -2.1257 0.0503 -1.7815 1.2305 -17.6998 2.3768 1.6934 13.6585 1.2517 0.9355 7.0460 0.0000 0.0000 0.0000 -91.6856 -21.4407 81.3849 40.5776 -48.4084 -18.8701 -0.0000 -0.0000 53.3363 42.7949 13.8076 12.4601 -7.1250 0.0000 -0.0000 15.0008 47.9144 1.1019 0.0000 0.0000 0.0000 78.6907 4.6692 38.1358 -78.6807 59.5103 -50.2133 0.0000 -0.0000 -36.2324 -13.2583 -54.1460 10.8119 7.1250 -0.0000 -0.0000 70.9245 -76.5017 -57.3515
0.00 0.00 0.00 -183.1230 -80.8175 190.1420 0.0000 0.0000 0.0000 -24.7807 -4.6936 -5.4748 1.1289 6.7484 18.9720 0.5205 -7.8957 -13.1728 0.0879 1.9122 5.2630 0.0000 0.0000 0.0000 12.5337 7.8656 -37.2304 -2.9566 -10.6245 31.0238 0.4254 -12.0433 -8.3809 -0.0334 -1.1794 3.2426 -0.2581 -2.4558 1.0540 4.0342 -3.3452 0.5779 4.3170 -1.7147 0.2597 -2.1911 0.1341 -18.0105 3.0031 0.2182 13.1410 1.3589 0.2673 6.9625 -0.0000 -0.0000 0.0000 -89.3600 -12.2048 71.9807 40.4593 -48.3397 -18.7817 -0.0000 -0.0000 48.8499 37.4513 10.8740 8.2225 -7.1250 0.0000 -0.0000 9.4868 43.3801 -0.3829 -0.0000 -0.0000 0.0000 76.6461 4.7781 39.6246 -72.0344 58.7446 -44.5070 0.0000 -0.0000 -32.8187 -1.7661 -53.3271 1.4167 7.1250 -0.0000 -0.0000 72.6989 -72.0572 -53.9479
0.00 0.00 0.00 -197.8500 -92.0459 207.0990 0.0000 0.0000 0.0000 -19.1214 -7.2440 -3.7608 2.3122 9.4882 27.3346 -0.2965 -16.0983 -7.9302 0.0283 -1.0857 -2.9847 0.0000 0.0000 0.0000 12.0914 9.3983 -33.8861 -0.9707 -6.2726 17.5775 0.9704 -17.2383 -8.6178 -0.2538 -3.2417 8.9523 1.4092 0.4613 1.4914 3.7924 0.5671 1.0031 3.0962 0.2520 0.1682 -5.2651 -4.3055 -18.2600 5.3483 -5.3607 12.0721 1.9859 -2.3491 6.9639 -0.0000 -0.0000 0.0000 -85.3289 -6.5014 38.0906 31.9628 -42.5175 -12.7157 -0.0000 -0.0000 28.5066 29.2952 15.0488 8.2883 -7.1250 0.0000 -0.0000 1.6391 47.1071 0.0853 -0.0000 -0.0000 0.0000 65.9178 16.5293 42.0715 -67.5665 58.0103 -40.7018 0.0000 -0.0000 -34.5469 29.9144 -34.5877 -18.0877 7.1250 -0.0000 -0.0000 63.5852 -53.7730 -19.7802
0.00 0.00 0.00 -203.8410 -99.5269 212.3500 0.0000 0.0000 0.0000 -10.8137 -13.1950 -9.7187 5.3712 13.7900 42.4028 -0.6693 -14.7086 1.8203 0.6539 -5.1724 -14.4009 0.0000 0.0000 0.0000 19.0431 7.1800 -28.9697 -1.4080 -7.5054 21.2216 0.8573 -16.1820 -7.4099 -0.9491 -6.2045 17.3788 5.4479 2.8385 2.2115 4.2767 3.8067 0.9581 1.2670 1.8621 -0.1859 -7.8465 -7.4596 -17.1699 6.7700 -9.3589 12.7554 2.3789 -4.2733 7.4213 -0.0000 -0.0000 0.0000 -81.8205 -9.4181 12.8559 20.5434 -31.2915 -5.8110 -0.0000 -0.0000 24.9650 25.7559 20.1591 9.4404 -7.1250 0.0000 -0.0000 -2.7717 52.1355 -0.4872 -0.0000 -0.0000 0.0000 54.0233 35.6976 32.6152 -57.9816 55.7476 -32.6671 0.0000 -0.0000 -35.8013 24.0401 -33.5589 -13.8518 7.1250 -0.0000 -0.0000 58.0158 -54.3252 -17.7570
0.00 0.00 0.00 -214.2420 -106.2770 221.8010 0.0000 0.0000 0.0000 -2.9218 -19.8209 -26.5003 1.9392 8.7383 24.9801 0.1632 -0.1203 -7.5876 0.8627 -5.9228 -16.5605 0.0000 0.0000 0.0000 32.4143 0.8692 -7.2957 -0.8213 -5.7824 16.1543 0.0103 -9.8849 -13.9092 -0.1222 -2.2538 6.2075 9.8421 5.9855 0.2653 4.0755 7.9203 -0.5889 -1.1878 3.8698 -0.0140 -10.2872 -10.4373 -14.2026 8.8084 -13.5955 13.4399 2.9293 -6.3092 7.7869 0.0000 0.0000 0.0000 -86.6084 6.6258 -16.3436 10.8028 -17.9854 -1.7145 -0.0000 -0.0000 35.1811 17.4151 20.0362 6.1339 -7.1250 0.0000 -0.0000 -11.0147 50.5717 -1.5284 0.0000 0.0000 0.0000 51.2037 47.2474 23.2205 -33.2717 43.5378 -13.6089 0.0000 -0.0000 -4.8084 -15.6367 -44.4381 11.0875 7.1250 -0.0000 -0.0000 37.3352 -72.5214 -25.3617
0.00 0.00 0.00 -228.2550 -100.1640 235.6970 0.0000 0.0000 0.0000 -8.1189 -15.4313 -23.3368 0.6369 5.1060 14.2112 0.0031 1.2113 -2.1092 0.1600 -2.5776 -7.1049 0.0000 0.0000 0.0000 28.9817 -0.4015 -4.5127 -2.8935 -10.5207 30.6798 -0.0048 -6.5610 -9.4790 -0.1931 2.8301 -7.8060 6.4072 5.8619 -1.7951 2.1194 7.6181 -0.2714 -1.1124 3.8067 1.2629 -10.4333 -8.6931 -14.8358 8.1319 -11.0237 14.1971 3.0633 -5.1335 7.8574 -0.0000 0.0000 0.0000 -98.0445 9.0153 -37.7451 6.9996 -11.9185 -0.7316 -0.0000 -0.0000 63.9061 9.0602 13.5989 2.1472 -7.1250 0.0000 -0.0000 -16.5817 43.1134 0.7955 -0.0000 0.0000 0.0000 85.0653 14.5839 31.4314 -19.1446 29.5980 -5.1021 0.0000 0.0000 12.7718 -21.2563 -33.8660 12.2310 7.1250 -0.0000 -0.0000 14.8094 -65.1613 -7.2922
0.00 0.00 0.00 -228.9490 -96.3609 235.2590 0.0000 0.0000 0.0000 -13.9811 -12.4756 -17.7991 0.8048 5.7256 15.9904 0.0121 -0.0384 -2.0617 0.0028 -0.3416 -0.9386 0.0000 0.0000 0.0000 23.1217 -0.1633 -11.6963 -6.4390 -14.8407 46.7192 0.3977 -11.4678 -1.1219 -0.0259 1.0386 -2.8549 3.5056 4.1898 -1.6697 1.2467 5.4893 -0.0296 -0.5220 2.7502 1.1090 -9.0385 -6.7034 -16.0911 6.6886 -8.3076 15.6250 2.6922 -3.8679 8.1546 0.0000 0.0000 0.0000 -97.8847 6.4227 -26.5652 7.5412 -12.8065 -0.8475 -0.0000 -0.0000 58.9996 9.6895 12.0283 2.0379 -7.1250 0.0000 -0.0000 -15.5814 41.6519 1.3226 0.0000 0.0000 0.0000 91.6013 1.4384 1.1005 -8.4565 14.2901 -1.0620 0.0000 0.0000 33.7825 -11.0858 -31.2398 5.8023 7.1250 -0.0000 -0.0000 23.7604 -60.1004 -9.0577
0.00 0.00 0.00 -176.0570 -92.9034 181.8540 0.0000 0.0000 0.0000 -23.1287 -5.0819 -0.4473 0.5421 4.7172 13.1038 0.2986 -5.3768 -9.8596 0.0059 -0.4959 -1.3626 0.0000 0.0000 0.0000 15.0386 4.4047 -32.4333 -3.7051 -11.7572 34.8785 0.9158 -16.9419 -9.7111 -0.0995 -2.0347 5.6015 -2.6352 -2.1158 -0.7863 2.4255 -2.8215 -0.7646 3.9463 -1.4062 -0.0948 -3.0035 -0.7320 -18.9040 1.5031 -0.5759 19.5123 0.9317 -0.3608 9.2798 -0.0000 0.0000 0.0000 -76.3568 -11.1217 -5.0673 13.6290 -22.2019 -2.6863 -0.0000 -0.0000 30.5866 20.0303 21.6933 7.6748 -7.1250 0.0000 -0.0000 -9.0335 52.7051 -1.7242 -0.0000 0.0000 0.0000 78.9511 -16.2154 -26.6231 -9.9869 16.7190 -1.4712 0.0000 0.0000 23.7299 -15.4296 -34.9403 8.9825 7.1250 -0.0000 -0.0000 22.5602 -64.5529 -10.9418
0.00 0.00 0.00 -229.6000 -94.9338 237.0670 0.0000 0.0000 0.0000 -14.1148 -2.7047 -7.2761 4.4955 12.7921 38.5950 -0.1421 -6.7440 1.3949 0.7572 -5.5575 -15.5059 0.0000 0.0000 0.0000 25.7298 7.8190 -21.2559 -0.5152 -4.6006 12.7729 0.5308 -12.9499 -2.5676 -1.2919 -7.2019 20.3149 1.3964 -1.5652 -1.6207 4.9895 -2.1839 -1.7719 4.3360 -1.1267 -0.7679 -1.9831 0.1660 -20.1328 -1.2575 1.0512 21.2024 0.0268 0.1165 10.0891 -0.0000 -0.0000 0.0000 -79.9519 -11.0081 28.5698 26.2752 -37.4792 -9.0546 -0.0000 -0.0000 19.0751 20.1529 18.9340 6.7909 -7.1250 0.0000 -0.0000 -8.0009 49.8838 -0.9688 -0.0000 -0.0000 0.0000 84.2355 -0.9177 8.6995 -16.6676 26.4175 -3.9383 0.0000 0.0000 13.6390 -18.0400 -25.2816 7.9186 7.1250 -0.0000 -0.0000 12.6009 -55.9485 -3.4233
